<?xml version="1.0" encoding="iso-8859-1"?>
<!-- Generator: Adobe Illustrator 19.0.0, SVG Export Plug-In . SVG Version: 6.00 Build 0)  -->
<svg version="1.1" id="Layer_1" xmlns="http://www.w3.org/2000/svg" xmlns:xlink="http://www.w3.org/1999/xlink" x="0px" y="0px"
	 viewBox="0 0 480 480" style="enable-background:new 0 0 480 480;" xml:space="preserve">
<rect x="144" y="80" style="fill:#FFFFFF;" width="192" height="392"/>
<g>
	<polygon style="fill:#F5B945;" points="264,8 264,40 216,40 216,8 184,8 184,104 216,104 216,72 264,72 264,104 296,104 296,8 	"/>
	<rect x="176" y="320" style="fill:#F5B945;" width="128" height="32"/>
</g>
<g>
	<rect x="240" y="352" style="fill:#FFFFFF;" width="48" height="120"/>
	<rect x="192" y="352" style="fill:#FFFFFF;" width="48" height="120"/>
</g>
<rect x="184" y="224" style="fill:#F5B945;" width="112" height="64"/>
<g>
	<rect x="8" y="136" style="fill:#FFFFFF;" width="136" height="336"/>
	<rect x="48" y="336" style="fill:#FFFFFF;" width="56" height="40"/>
</g>
<path d="M104,440H48c-4.424,0-8-3.576-8-8v-56c0-4.424,3.576-8,8-8h56c4.424,0,8,3.576,8,8v56C112,436.424,108.424,440,104,440z
	 M56,424h40v-40H56V424z"/>
<g>
	<rect x="48" y="376" style="fill:#F5B945;" width="56" height="56"/>
	<rect x="56" y="184" style="fill:#F5B945;" width="88" height="88"/>
</g>
<g>
	<rect x="8" y="184" style="fill:#FFFFFF;" width="48" height="88"/>
	<rect x="8" y="272" style="fill:#FFFFFF;" width="136" height="32"/>
</g>
<ellipse style="fill:#F5B945;" cx="55.336" cy="56" rx="20.664" ry="38"/>
<g>
	<rect x="336" y="136" style="fill:#FFFFFF;" width="136" height="336"/>
	<rect x="376" y="336" style="fill:#FFFFFF;" width="56" height="40"/>
</g>
<path d="M432,440h-56c-4.424,0-8-3.576-8-8v-56c0-4.424,3.576-8,8-8h56c4.424,0,8,3.576,8,8v56C440,436.424,436.424,440,432,440z
	 M384,424h40v-40h-40V424z"/>
<g>
	<rect x="376" y="376" style="fill:#F5B945;" width="56" height="56"/>
	<rect x="336" y="184" style="fill:#F5B945;" width="88" height="88"/>
</g>
<g>
	<rect x="424" y="184" style="fill:#FFFFFF;" width="48" height="88"/>
	<rect x="336" y="272" style="fill:#FFFFFF;" width="136" height="32"/>
</g>
<ellipse style="fill:#F5B945;" cx="424.64" cy="56" rx="20.664" ry="38"/>
<path d="M296,136H184c-4.424,0-8,3.576-8,8v80v64c0,4.424,3.576,8,8,8h112c4.424,0,8-3.576,8-8v-64v-80
	C304,139.576,300.424,136,296,136z M288,280h-96v-48h96V280z M288,216h-96v-64h96V216z"/>
<path d="M48,440h56c4.424,0,8-3.576,8-8v-56v-40c0-4.424-3.576-8-8-8H48c-4.424,0-8,3.576-8,8v40v56C40,436.424,43.576,440,48,440z
	 M56,344h40v24H56V344z M56,384h40v40H56V384z"/>
<path d="M376,440h56c4.424,0,8-3.576,8-8v-56v-40c0-4.424-3.576-8-8-8h-56c-4.424,0-8,3.576-8,8v40v56
	C368,436.424,371.576,440,376,440z M384,344h40v24h-40V344z M384,384h40v40h-40V384z"/>
<path d="M472,88c-4.424,0-8,3.576-8,8v32h-32v-27.456C444.552,95.592,453.336,78.12,453.336,56c0-26.224-12.328-46-28.672-46
	S396,29.776,396,56c0,21.336,8.16,38.4,20,44.024V128h-32V96c0-4.424-3.576-8-8-8s-8,3.576-8,8v32h-24V80c0-4.424-3.576-8-8-8h-32V8
	c0-4.424-3.576-8-8-8h-32c-4.424,0-8,3.576-8,8v24h-32V8c0-4.424-3.576-8-8-8h-32c-4.424,0-8,3.576-8,8v64h-32c-4.424,0-8,3.576-8,8
	v48h-24V96c0-4.424-3.576-8-8-8s-8,3.576-8,8v32H64v-27.976C75.84,94.4,84,77.336,84,56c0-26.224-12.32-46-28.664-46
	S26.664,29.776,26.664,56c0,22.12,8.784,39.6,21.336,44.544V128H16V96c0-4.424-3.576-8-8-8s-8,3.576-8,8v40v336c0,4.424,3.576,8,8,8
	h464c4.424,0,8-3.576,8-8V96C480,91.576,476.424,88,472,88z M42.664,56c0-18.032,7.624-30,12.672-30C60.376,26,68,37.968,68,56
	s-7.624,30-12.664,30C50.288,86,42.664,74.032,42.664,56z M16,192h32v72H16V192z M136,464H16V312h120V464z M136,296H16v-16h40h80
	V296z M136,264H64v-72h72V264z M136,176H56H16v-32h120V176z M192,64V16h16v24c0,4.424,3.576,8,8,8h48c4.424,0,8-3.576,8-8V16h16v48
	v24v8h-16v-8V64h-64v24v8h-16v-8V64z M232,464h-32V360h32V464z M280,464h-32V360h32V464z M240,344h-48h-8v-16h112v16h-8H240z
	 M328,136v48v88v32v160h-32V360h8c4.424,0,8-3.576,8-8v-32c0-4.424-3.576-8-8-8H176c-4.424,0-8,3.576-8,8v32c0,4.424,3.576,8,8,8h8
	v104h-32V304v-32v-88v-48V88h24v8v8c0,4.424,3.576,8,8,8h32c4.424,0,8-3.576,8-8v-8v-8h32v8v8c0,4.424,3.576,8,8,8h32
	c4.424,0,8-3.576,8-8v-8v-8h24V136z M412,56c0-18.032,7.624-30,12.664-30c5.048,0,12.672,11.968,12.672,30s-7.624,30-12.672,30
	C419.624,86,412,74.032,412,56z M344,192h72v72h-72V192z M464,464H344V312h120V464z M464,296H344v-16h80h40V296z M464,264h-32v-72
	h32V264z M464,176h-40h-80v-32h120V176z"/>
<g>
</g>
<g>
</g>
<g>
</g>
<g>
</g>
<g>
</g>
<g>
</g>
<g>
</g>
<g>
</g>
<g>
</g>
<g>
</g>
<g>
</g>
<g>
</g>
<g>
</g>
<g>
</g>
<g>
</g>
</svg>
